<svg aria-hidden="true" style="position: absolute; width: 0; height: 0; overflow: hidden;" version="1.1" xmlns="http://www.w3.org/2000/svg" xmlns:xlink="http://www.w3.org/1999/xlink">
<defs>
<symbol id="add" viewBox="0 0 32 32">
<path stroke-linejoin="round" stroke-linecap="round" stroke-miterlimit="4" stroke-width="2.6667" d="M29.333 16c0 7.364-5.97 13.333-13.333 13.333s-13.333-5.97-13.333-13.333c0-7.364 5.97-13.333 13.333-13.333s13.333 5.97 13.333 13.333z"></path>
<path stroke-linejoin="round" stroke-linecap="round" stroke-miterlimit="4" stroke-width="2.6667" d="M16 10.667v10.667"></path>
<path stroke-linejoin="round" stroke-linecap="round" stroke-miterlimit="4" stroke-width="2.6667" d="M10.667 16h10.667"></path>
</symbol>
<symbol id="update" viewBox="0 0 32 32">
<path stroke-linejoin="round" stroke-linecap="round" stroke-miterlimit="4" stroke-width="2.6667" d="M26.667 19.547v7.12c0 1.473-1.194 2.667-2.667 2.667v0h-18.667c-1.473 0-2.667-1.194-2.667-2.667v0-18.667c0-1.473 1.194-2.667 2.667-2.667v0h7.12"></path>
<path stroke-linejoin="round" stroke-linecap="round" stroke-miterlimit="4" stroke-width="2.6667" d="M24 2.667l5.333 5.333-13.333 13.333h-5.333v-5.333l13.333-13.333z"></path>
</symbol>
<symbol id="delete" viewBox="0 0 32 32">
<path stroke-linejoin="round" stroke-linecap="round" stroke-miterlimit="4" stroke-width="2.6667" d="M4 8h24"></path>
<path stroke-linejoin="round" stroke-linecap="round" stroke-miterlimit="4" stroke-width="2.6667" d="M25.333 8v18.667c0 1.473-1.194 2.667-2.667 2.667v0h-13.333c-1.473 0-2.667-1.194-2.667-2.667v0-18.667M10.667 8v-2.667c0-1.473 1.194-2.667 2.667-2.667v0h5.333c1.473 0 2.667 1.194 2.667 2.667v0 2.667"></path>
<path stroke-linejoin="round" stroke-linecap="round" stroke-miterlimit="4" stroke-width="2.6667" d="M13.333 14.667v8"></path>
<path stroke-linejoin="round" stroke-linecap="round" stroke-miterlimit="4" stroke-width="2.6667" d="M18.667 14.667v8"></path>
</symbol>
</defs>
</svg>
